HIERARCHY
ROOT Hips
{
    OFFSET 0.000000 0.000000 0.000000
    CHANNELS 6 Xposition Yposition Zposition Zrotation Xrotation Yrotation
    JOINT Spine
    {
        OFFSET -0.000000 7.236184 0.000000
        CHANNELS 3 Zrotation Xrotation Yrotation
        JOINT Spine1
        {
            OFFSET -0.000000 20.420147 0.000000
            CHANNELS 3 Zrotation Xrotation Yrotation
            JOINT Neck
            {
                OFFSET -0.000000 20.336288 1.848754
                CHANNELS 3 Zrotation Xrotation Yrotation
                JOINT Head
                {
                    OFFSET -0.000000 12.354461 -1.764923
                    CHANNELS 3 Zrotation Xrotation Yrotation
                    End Site
                    {
                        OFFSET -0.000000 22.061537 0.000000
                    }
                }
            }
            JOINT LeftShoulder
            {
                OFFSET 3.573296 18.396038 -0.314103
                CHANNELS 3 Zrotation Xrotation Yrotation
                JOINT LeftArm
                {
                    OFFSET 10.880760 0.000000 0.000000
                    CHANNELS 3 Zrotation Xrotation Yrotation
                    JOINT LeftForeArm
                    {
                        OFFSET 27.185530 0.000000 0.000000
                        CHANNELS 3 Zrotation Xrotation Yrotation
                        JOINT LeftHand
                        {
                            OFFSET 27.825975 0.000000 0.000000
                            CHANNELS 3 Zrotation Xrotation Yrotation
                            End Site
                            {
                                OFFSET 13.236923 0.000000 0.000000
                            }
                        }
                    }
                }
            }
            JOINT RightShoulder
            {
                OFFSET -3.474926 18.396038 -0.314103
                CHANNELS 3 Zrotation Xrotation Yrotation
                JOINT RightArm
                {
                    OFFSET -10.880760 0.000000 0.000000
                    CHANNELS 3 Zrotation Xrotation Yrotation
                    JOINT RightForeArm
                    {
                        OFFSET -27.185530 0.000000 0.000000
                        CHANNELS 3 Zrotation Xrotation Yrotation
                        JOINT RightHand
                        {
                            OFFSET -27.825975 0.000000 0.000000
                            CHANNELS 3 Zrotation Xrotation Yrotation
                            End Site
                            {
                                OFFSET -13.236923 0.000000 0.000000
                            }
                        }
                    }
                }
            }
        }
    }
    JOINT LeftUpLeg
    {
        OFFSET 8.824615 0.000000 0.000000
        CHANNELS 3 Zrotation Xrotation Yrotation
        JOINT LeftLeg
        {
            OFFSET -0.000000 -35.111282 0.000000
            CHANNELS 3 Zrotation Xrotation Yrotation
            JOINT LeftFoot
            {
                OFFSET -0.000000 -42.324711 0.000000
                CHANNELS 3 Zrotation Xrotation Yrotation
                JOINT LeftToeBase
                {
                    OFFSET -0.000000 -5.735999 13.236923
                    CHANNELS 3 Zrotation Xrotation Yrotation
                    End Site
                    {
                        OFFSET -0.000000 0.000000 3.529846
                    }
                }
            }
        }
    }
    JOINT RightUpLeg
    {
        OFFSET -8.824615 0.000000 0.000000
        CHANNELS 3 Zrotation Xrotation Yrotation
        JOINT RightLeg
        {
            OFFSET -0.000000 -35.111282 0.000000
            CHANNELS 3 Zrotation Xrotation Yrotation
            JOINT RightFoot
            {
                OFFSET -0.000000 -42.324711 0.000000
                CHANNELS 3 Zrotation Xrotation Yrotation
                JOINT RightToeBase
                {
                    OFFSET -0.000000 -5.735999 13.236923
                    CHANNELS 3 Zrotation Xrotation Yrotation
                    End Site
                    {
                        OFFSET -0.000000 0.000000 3.529846
                    }
                }
            }
        }
    }
}
MOTION
Frames:    10
Frame Time:    0.008333
-6.457114    83.780083    102.403175    -0.265956    -13.018433    -175.352203    -1.953586    -20.963844    -0.291528    2.806915    12.914210    -0.247686    2.883204    2.453166    -3.623152    10.407382    -11.880981    -1.599087    1.233762    19.504560    -5.502841    -33.303444    47.431358    -54.410503    2.771174    -2.318820    -19.260036    17.698524    -1.985108    -0.875599    5.848221    23.087248    -1.930954    34.758278    41.010452    43.508835    -4.672019    -8.243457    15.209400    -14.852290    -7.179144    -3.450790    7.138388    -20.243265    1.019640    1.085441    16.163637    4.337094    -11.153280    -5.814186    -14.466626    -0.259890    -1.259836    0.288740    -10.690472    -13.046901    -2.946685    1.696713    6.394981    3.047087    7.671957    -3.833301    -11.227531    -0.985087    -1.333963    1.067417    
-6.443496    83.775291    102.398872    -0.258257    -12.991729    -175.310989    -1.957114    -20.941620    -0.328925    2.886214    12.900228    -0.293166    2.900142    2.507290    -3.628383    10.435442    -11.807849    -1.604846    1.229334    19.529533    -5.510874    -33.302368    47.523342    -54.402683    2.765049    -2.283145    -19.250784    17.821201    -1.953074    -0.884693    5.874265    23.102341    -1.958619    34.783920    40.979668    43.506248    -4.653328    -8.231029    15.191092    -14.881770    -7.169674    -3.445845    7.149749    -20.229454    1.026183    1.089066    16.173481    4.283884    -11.153070    -5.818061    -14.462881    -0.261214    -1.261961    0.290212    -10.675482    -13.006133    -2.900038    1.698751    6.393556    3.008390    7.667556    -3.847920    -11.264251    -0.988504    -1.333392    1.071120    
-6.429914    83.770523    102.394638    -0.250347    -12.965465    -175.270050    -1.960370    -20.919151    -0.361933    2.965146    12.884834    -0.341500    2.916473    2.561589    -3.634021    10.463235    -11.734838    -1.611005    1.224790    19.554176    -5.518176    -33.304939    47.612499    -54.391422    2.759972    -2.249450    -19.241575    17.945047    -1.922848    -0.893874    5.900076    23.117563    -1.986354    34.810467    40.950207    43.503571    -4.635136    -8.219035    15.173637    -14.911465    -7.160541    -3.440613    7.161449    -20.215769    1.030464    1.091872    16.182768    4.233905    -11.152995    -5.821546    -14.459608    -0.262483    -1.264221    0.291623    -10.660042    -12.965804    -2.854542    1.700223    6.391805    2.970369    7.663078    -3.862147    -11.300281    -0.991881    -1.332715    1.074778    
-6.416640    83.765854    102.390549    -0.242095    -12.940376    -175.230392    -1.963084    -20.896812    -0.399047    3.039154    12.868149    -0.381144    2.931792    2.614928    -3.639932    10.489115    -11.663176    -1.617726    1.219965    19.577665    -5.524091    -33.314278    47.694939    -54.373688    2.757438    -2.220148    -19.232487    18.067186    -1.896645    -0.903144    5.925019    23.132532    -2.013044    34.838619    40.923679    43.500065    -4.618403    -8.208062    15.158085    -14.940822    -7.152217    -3.435089    7.173712    -20.202585    1.031503    1.093265    16.191111    4.189727    -11.153017    -5.824381    -14.457159    -0.263513    -1.266241    0.292769    -10.644017    -12.926814    -2.811845    1.700778    6.389388    2.934049    7.658788    -3.875352    -11.334244    -0.995245    -1.331990    1.078422    
-6.403510    83.761200    102.386627    -0.233193    -12.916472    -175.191696    -1.965960    -20.874260    -0.432110    3.112430    12.849072    -0.420739    2.944174    2.667184    -3.646524    10.513818    -11.591243    -1.625164    1.213358    19.599791    -5.528114    -33.332306    47.769878    -54.346973    2.757513    -2.196057    -19.223614    18.187771    -1.875210    -0.912328    5.947471    23.147568    -2.039685    34.869781    40.900768    43.496613    -4.603463    -8.198128    15.144614    -14.969967    -7.144727    -3.428832    7.187005    -20.190176    1.029498    1.093179    16.198860    4.150527    -11.153356    -5.826752    -14.455226    -0.264443    -1.268155    0.293803    -10.626930    -12.888997    -2.772079    1.700227    6.386013    2.899339    7.654214    -3.887417    -11.366200    -0.998521    -1.331427    1.081971    
-6.390659    83.756599    102.382889    -0.223551    -12.893882    -175.154327    -1.964955    -20.850754    -0.461466    3.174448    12.825554    -0.456712    2.961225    2.719793    -3.652622    10.534012    -11.520277    -1.633643    1.211344    19.621635    -5.529510    -33.364109    47.834026    -54.309631    2.760113    -2.176996    -19.213264    18.302891    -1.858452    -0.921711    5.973883    23.163378    -2.064203    34.902195    40.882217    43.490868    -4.590313    -8.190010    15.134782    -14.998078    -7.138837    -3.421434    7.201385    -20.178703    1.025234    1.091793    16.206120    4.116076    -11.153821    -5.828691    -14.453912    -0.265125    -1.269689    0.294561    -10.608743    -12.852508    -2.736012    1.698419    6.381581    2.867034    7.649470    -3.898197    -11.395839    -1.001727    -1.330751    1.085444    
-6.378040    83.752045    102.379395    -0.213183    -12.872860    -175.117828    -1.964892    -20.827030    -0.488191    3.236840    12.798861    -0.490395    2.972582    2.771044    -3.659785    10.553981    -11.447796    -1.642790    1.205306    19.640945    -5.528417    -33.407898    47.888668    -54.258953    2.764918    -2.163581    -19.202826    18.409472    -1.846678    -0.929914    5.995912    23.180002    -2.089209    34.938427    40.868450    43.486225    -4.579898    -8.182940    15.127612    -15.025074    -7.133809    -3.412291    7.216660    -20.168781    1.019256    1.089434    16.213211    4.085021    -11.154414    -5.830257    -14.452837    -0.265632    -1.270914    0.295125    -10.589611    -12.817527    -2.703703    1.695530    6.376035    2.836841    7.644378    -3.907666    -11.423269    -1.004761    -1.330447    1.088731    
-6.366025    83.747726    102.376434    -0.202591    -12.854291    -175.082825    -1.963201    -20.802822    -0.511697    3.292154    12.767117    -0.519775    2.982948    2.821633    -3.667189    10.571587    -11.374715    -1.652711    1.199449    19.658382    -5.524558    -33.466427    47.931168    -54.194473    2.770932    -2.154413    -19.191076    18.501816    -1.838550    -0.936263    6.017248    23.197683    -2.113003    34.977520    40.860519    43.481018    -4.572793    -8.177300    15.123995    -15.049915    -7.129947    -3.401199    7.231771    -20.161587    1.012352    1.086922    16.220659    4.056551    -11.154988    -5.831670    -14.451590    -0.265719    -1.272124    0.295222    -10.570618    -12.785415    -2.676193    1.691923    6.369821    2.809640    7.639010    -3.915644    -11.448167    -1.007567    -1.330402    1.091771    
-6.354852    83.743797    102.374199    -0.192274    -12.838842    -175.049225    -1.960203    -20.778570    -0.531585    3.340583    12.729928    -0.545172    2.991337    2.871435    -3.674925    10.587625    -11.300240    -1.663254    1.193189    19.673676    -5.517517    -33.539185    47.961475    -54.116314    2.777118    -2.147855    -19.177767    18.575563    -1.832521    -0.939862    6.037119    23.216780    -2.135912    35.019455    40.858913    43.475945    -4.569478    -8.172839    15.124207    -15.071863    -7.126952    -3.388212    7.245659    -20.158054    1.005262    1.084966    16.228720    4.029286    -11.155740    -5.832930    -14.449831    -0.265538    -1.272796    0.295022    -10.552757    -12.756972    -2.654029    1.687922    6.363132    2.785518    7.633450    -3.922085    -11.470385    -1.010107    -1.330745    1.094523    
-6.344697    83.740372    102.372826    -0.182603    -12.827142    -175.016937    -1.955539    -20.754377    -0.548132    3.380637    12.686363    -0.566073    2.998493    2.920785    -3.682757    10.601863    -11.223728    -1.674392    1.187180    19.686560    -5.507380    -33.626560    47.979496    -54.024117    2.782404    -2.141638    -19.162167    18.627008    -1.826246    -0.940046    6.056205    23.237099    -2.157573    35.064110    40.864494    43.470428    -4.570208    -8.169310    15.128379    -15.090422    -7.124550    -3.373443    7.257395    -20.159195    0.999125    1.084466    16.237833    4.001314    -11.156481    -5.834214    -14.447179    -0.264975    -1.273360    0.294396    -10.536836    -12.732936    -2.637766    1.683890    6.356111    2.764428    7.627642    -3.926893    -11.489693    -1.012455    -1.331466    1.097069    
